<svg xmlns="http://www.w3.org/2000/svg" viewBox="0 0 220 320" width="220" height="320">
  <!-- PLACEHOLDER ART — BODY slot, "bikini" outfit, hungry pose. -->
  <g fill="none" stroke="#4A4038" stroke-width="4" stroke-linecap="round" stroke-linejoin="round">
    <path d="M80 160 L70 190 L74 260 L148 260 L152 190 L142 160"/>
    <path d="M88 160 Q100 172 111 164 Q122 172 134 160" stroke-width="3"/>
    <path d="M94 159 L99 148 M128 159 L123 148" stroke-width="2.5"/>
    <path d="M74 195 C64 215 80 225 98 228"/>
    <circle cx="98" cy="228" r="7"/>
    <path d="M148 195 C158 215 142 225 124 228"/>
    <circle cx="124" cy="228" r="7"/>
    <path d="M74 260 L148 260 L156 300 L66 300 Z"/>
    <path d="M104 268 q7 6 0 12 q7 -6 0 -12 Z" stroke-width="2"/>
    <path d="M84 288 q6 -4 12 0 M124 288 q6 -4 12 0" stroke-width="2"/>
    <path d="M92 300 L90 316 M130 300 L132 316"/>
    <ellipse cx="88" cy="317" rx="7" ry="4"/>
    <ellipse cx="134" cy="317" rx="7" ry="4"/>
  </g>
  <path d="M104 238 q4 -6 8 0 q4 -6 8 0" fill="none" stroke="#D48C82" stroke-width="2.5" stroke-linecap="round"/>
</svg>
