<svg xmlns="http://www.w3.org/2000/svg" viewBox="0 0 48 48" width="48" height="48">
  <!-- PLACEHOLDER ICON — banana peel mess (left behind after eating a
       banana — see messOnEat in js/items.js). -->
  <g fill="#E8C468" stroke="#4A4038" stroke-width="2" stroke-linecap="round" stroke-linejoin="round">
    <path d="M24 26 C18 14 20 8 24 6 C26 10 25 16 24 26 Z"/>
    <path d="M24 26 C14 24 8 27 6 33 C12 34 20 32 24 26 Z"/>
    <path d="M24 26 C16 34 16 40 20 44 C25 41 26 33 24 26 Z"/>
    <path d="M24 26 C32 33 33 39 30 44 C24 42 22 34 24 26 Z"/>
    <path d="M24 26 C34 25 40 28 42 34 C36 35 28 32 24 26 Z"/>
  </g>
</svg>
