<svg xmlns="http://www.w3.org/2000/svg" viewBox="0 0 220 320" width="220" height="320">
  <!-- PLACEHOLDER ART — BODY slot, "snow" outfit, tantrum pose. -->
  <g fill="none" stroke="#4A4038" stroke-width="4" stroke-linecap="round" stroke-linejoin="round">
    <path d="M84 160 L72 190 L76 258 L146 258 L152 190 L138 160"/>
    <path d="M86 160 Q93 152 100 160 Q107 152 114 160 Q121 152 128 160 Q135 152 136 158" stroke-width="3"/>
    <path d="M111 168 L111 218" stroke-width="2.5"/>
    <path d="M80 188 C56 168 34 172 20 158"/>
    <circle cx="18" cy="156" r="7"/>
    <path d="M142 188 C168 164 186 172 200 162"/>
    <circle cx="202" cy="160" r="7"/>
    <path d="M76 258 L146 258 L154 294 L68 294 Z"/>
    <path d="M90 260 L88 292 M111 261 L111 292 M132 260 L134 292" stroke-width="3.5"/>
    <path d="M94 294 L100 316" stroke-width="4"/>
    <ellipse cx="102" cy="317" rx="12" ry="6"/>
    <path d="M124 290 C110 278 96 282 84 270"/>
    <ellipse cx="80" cy="266" rx="12" ry="6" transform="rotate(35 80 266)"/>
  </g>
</svg>
