<svg xmlns="http://www.w3.org/2000/svg" viewBox="0 0 220 320" width="220" height="320">
  <!-- PLACEHOLDER ART — BODY slot, "playing alone" idle pose: arms up,
       one leg kicked out. Keep the same viewBox on any replacement so it
       lines up with the head/ears/face layers above it. -->
  <g fill="none" stroke="#4A4038" stroke-width="4" stroke-linecap="round" stroke-linejoin="round">
    <path d="M80 160 L70 190 L74 260 L148 260 L152 190 L142 160"/>
    <path d="M92 158 L111 180 L130 158"/>
    <path d="M104 183 L118 183 M111 177 L111 191" stroke-width="3"/>
    <path d="M78 190 C58 175 40 165 30 150"/>
    <circle cx="28" cy="148" r="7"/>
    <path d="M144 190 C164 175 182 165 192 150"/>
    <circle cx="194" cy="148" r="7"/>
    <path d="M74 260 L148 260 L158 296 L64 296 Z"/>
    <path d="M92 296 L88 314"/>
    <ellipse cx="86" cy="317" rx="10" ry="5"/>
    <path d="M126 292 C140 285 152 270 148 254"/>
    <ellipse cx="150" cy="250" rx="10" ry="6" transform="rotate(-30 150 250)"/>
  </g>
</svg>
